# xmcd CD database file
#
# Track frame offsets:
#	150
#	11975
#	30000
#	46350
#	58375
#	72375
#	88050
#	102975
#	116625
#	132375
#	150000
#	157500
#
# Disc length: 2247 seconds
#
# Revision: 2
# Processed by: cddbd v1.4b41PL1 Copyright (c) Steve Scherf et al.
# Submitted via: Feurio! 1.50.2ß - http://www.feurio.com
#
DISCID=9108c50c
DTITLE=Enrique Ugarte - Valse Musette CD I
DYEAR=1900
DGENRE=
TTITLE0=Bourrasque
TTITLE1=Monsieur Baudoin Java
TTITLE2=Brise Napolitaine
TTITLE3=Reine De Musette
TTITLE4=Chiloé Musette
TTITLE5=Valse Yvonne
TTITLE6=Entre Paris Et Buenes Aires
TTITLE7=Musette In Minor
TTITLE8=Bon Voyage
TTITLE9=L`accordéon Triste
TTITLE10=Petite Fleur
TTITLE11=Pigalle
EXTD=
EXTT0=
EXTT1=
EXTT2=
EXTT3=
EXTT4=
EXTT5=
EXTT6=
EXTT7=
EXTT8=
EXTT9=
EXTT10=
EXTT11=
PLAYORDER=
